<?xml version="1.0" encoding="UTF-8" standalone="no"?>
<svg
   height="24px"
   viewBox="0 -960 960 960"
   width="24px"
   fill="#1f1f1f"
   version="1.1"
   id="svg1"
   sodipodi:docname="Help.svg"
   inkscape:version="1.4.3 (0d15f75042, 2025-12-25)"
   xmlns:inkscape="http://www.inkscape.org/namespaces/inkscape"
   xmlns:sodipodi="http://sodipodi.sourceforge.net/DTD/sodipodi-0.dtd"
   xmlns="http://www.w3.org/2000/svg"
   xmlns:svg="http://www.w3.org/2000/svg">
  <defs
     id="defs1" />
  <sodipodi:namedview
     id="namedview1"
     pagecolor="#ffffff"
     bordercolor="#666666"
     borderopacity="1.0"
     inkscape:showpageshadow="2"
     inkscape:pageopacity="0.0"
     inkscape:pagecheckerboard="0"
     inkscape:deskcolor="#d1d1d1"
     showgrid="true"
     inkscape:zoom="33.252033"
     inkscape:cx="12.014303"
     inkscape:cy="11.999267"
     inkscape:current-layer="svg1">
    <inkscape:grid
       id="grid1"
       units="px"
       originx="0"
       originy="0"
       spacingx="40"
       spacingy="40"
       empcolor="#3f3fff"
       empopacity="0.25098039"
       color="#3f3fff"
       opacity="0.1254902"
       empspacing="5"
       enabled="true"
       visible="true" />
  </sodipodi:namedview>
  <path
     d="m 418.34862,-332.63158 q 0,-85.26316 15.96331,-122.63158 15.9633,-37.36842 67.70642,-81.57895 45.13762,-37.89473 68.80734,-65.78947 23.66973,-27.89474 23.66973,-63.68421 0,-43.15789 -30.27524,-71.57895 -30.27523,-28.42105 -84.22018,-28.42105 -56.14678,0 -85.32109,32.63158 -29.17432,32.63158 -41.28441,66.31579 L 240,-713.68421 q 23.11927,-67.36842 84.77065,-116.84211 Q 386.42203,-880 480,-880 q 115.59633,0 177.79817,61.57895 Q 720,-756.84211 720,-670.52632 q 0,52.63158 -23.66973,90 -23.66972,37.36843 -74.31192,84.73685 -53.94496,49.47368 -65.50459,75.26315 -11.55963,25.78948 -11.55963,87.89474 z M 480,-80 q -36.33027,0 -62.20183,-24.73684 -25.87156,-24.73684 -25.87156,-59.47369 0,-34.73684 25.87156,-59.47368 25.87156,-24.73684 62.20183,-24.73684 36.33028,0 62.20184,24.73684 25.87155,24.73684 25.87155,59.47368 0,34.73685 -25.87155,59.47369 Q 516.33028,-80 480,-80 Z"
     id="path1"
     style="stroke-width:1.0765" />
</svg>
