<?xml version="1.0" encoding="UTF-8" standalone="no"?>
<svg
   height="24px"
   viewBox="0 -960 960 960"
   width="24px"
   fill="#1f1f1f"
   version="1.1"
   id="svg1"
   sodipodi:docname="search_check_2_24dp_1F1F1F_FILL0_wght400_GRAD0_opsz24.svg"
   inkscape:version="1.4.2 (ebf0e940d0, 2025-05-08)"
   xmlns:inkscape="http://www.inkscape.org/namespaces/inkscape"
   xmlns:sodipodi="http://sodipodi.sourceforge.net/DTD/sodipodi-0.dtd"
   xmlns="http://www.w3.org/2000/svg"
   xmlns:svg="http://www.w3.org/2000/svg">
  <defs
     id="defs1" />
  <sodipodi:namedview
     id="namedview1"
     pagecolor="#ffffff"
     bordercolor="#666666"
     borderopacity="1.0"
     inkscape:showpageshadow="2"
     inkscape:pageopacity="0.0"
     inkscape:pagecheckerboard="0"
     inkscape:deskcolor="#d1d1d1"
     inkscape:zoom="32.335422"
     inkscape:cx="11.999225"
     inkscape:cy="11.999225"
     inkscape:current-layer="svg1" />
  <path
     d="m 400,-320 c 66.66667,0 123.33333,-23.33333 170,-70 46.66667,-46.66667 70,-103.33333 70,-170 0,-66.66667 -23.33333,-123.33333 -70,-170 -46.66667,-46.66667 -103.33333,-70 -170,-70 -66.66667,0 -123.33333,23.33333 -170,70 -46.66667,46.66667 -70,103.33333 -70,170 0,66.66667 23.33333,123.33333 70,170 46.66667,46.66667 103.33333,70 170,70 z m 0,80 c -89.33333,0 -165,-31 -227,-93 -62,-62 -93,-137.66667 -93,-227 0,-89.33333 31,-165 93,-227 62,-62 137.66667,-93 227,-93 89.33333,0 165,31 227,93 62,62 93,137.66667 93,227 0,37.33333 -5.83333,72.5 -17.5,105.5 -11.66667,33 -28.16667,63.16667 -49.5,90.5 l 227,228 -56,56 -228,-227 c -27.33333,21.33333 -57.5,37.83333 -90.5,49.5 -33,11.66667 -68.16667,17.5 -105.5,17.5 z"
     id="path1"
     sodipodi:nodetypes="sssssssssssssssssccccss" />
</svg>
